<?xml version="1.0" encoding="utf-8"?>
<svg viewBox="0 0 166.35 110.22" xmlns="http://www.w3.org/2000/svg">
  <defs>
    <style>.cls-1,.cls-2{fill:#1d1d1b;}.cls-1,.cls-3,.cls-6{stroke:#1d1d1b;stroke-miterlimit:10;}.cls-1{stroke-width:0.5px;}.cls-3{fill:#e52332;}.cls-4{fill:#fff;}.cls-5{fill:none;}.cls-6{fill:#e52421;}</style>
  </defs>
  <g id="Calque_2" data-name="Calque 2">
    <g id="Calque_1-2" data-name="Calque 1" style="" transform="matrix(0.993837, 0, 0, 0.99767, 0, 0.256325)">
      <path class="cls-1" d="M19.2,105.93l4.88-2.72a.46.46,0,0,1,.18-.06.22.22,0,0,1,.22.23c0,.09-.06.16-.18.23l-4.18,2.32,4.17,2.32c.13.07.19.15.19.24a.21.21,0,0,1-.07.16.23.23,0,0,1-.16.06.46.46,0,0,1-.18-.06Z"/>
      <path class="cls-1" d="M33.25,108.61v-5.38h-.6a.33.33,0,0,1-.23-.06.2.2,0,0,1-.07-.16.21.21,0,0,1,.07-.17.33.33,0,0,1,.23-.06h2.83a2,2,0,0,1,1.38.49,1.47,1.47,0,0,1-.36,2.47,2.24,2.24,0,0,1,1,.68,1.44,1.44,0,0,1,.33.92,1.53,1.53,0,0,1-.22.82,1.7,1.7,0,0,1-.66.64,1.78,1.78,0,0,1-1,.26H32.65a.33.33,0,0,1-.23-.06.2.2,0,0,1-.07-.16.22.22,0,0,1,.07-.17.33.33,0,0,1,.23-.06Zm.46-3H35.3a2.18,2.18,0,0,0,.93-.19,1.22,1.22,0,0,0,.52-.43,1.07,1.07,0,0,0,.18-.58,1,1,0,0,0-.4-.78,1.48,1.48,0,0,0-1-.36H33.71Zm0,3H36a1.45,1.45,0,0,0,.76-.19,1.38,1.38,0,0,0,.48-.48,1.18,1.18,0,0,0,.17-.59,1.12,1.12,0,0,0-.24-.67,1.49,1.49,0,0,0-.66-.48,3.11,3.11,0,0,0-1.17-.17H33.71Z"/>
      <path class="cls-1" d="M46.91,106v2.58h3.47v-1.33a.35.35,0,0,1,.06-.23.22.22,0,0,1,.17-.07.19.19,0,0,1,.16.07.35.35,0,0,1,.06.23v1.78h-5a.37.37,0,0,1-.23-.06.24.24,0,0,1-.07-.16.26.26,0,0,1,.07-.17.37.37,0,0,1,.23-.06h.61v-5.38h-.61a.37.37,0,0,1-.23-.06.24.24,0,0,1-.07-.16.24.24,0,0,1,.07-.17.37.37,0,0,1,.23-.06H50.6v1.55a.33.33,0,0,1-.06.23.22.22,0,0,1-.17.07.19.19,0,0,1-.16-.07.33.33,0,0,1-.06-.23v-1.1H46.91v2.35h1.62v-.51a.33.33,0,0,1,.06-.23.22.22,0,0,1,.17-.07.2.2,0,0,1,.16.07.33.33,0,0,1,.07.23v1.47a.35.35,0,0,1-.07.23.2.2,0,0,1-.16.07.22.22,0,0,1-.17-.07.35.35,0,0,1-.06-.23V106Z"/>
      <path class="cls-1" d="M63.79,109.06h-.58l-3.32-5.62v5.17h.83a.38.38,0,0,1,.24.06.26.26,0,0,1,.07.17A.24.24,0,0,1,61,109a.38.38,0,0,1-.24.06H59.06a.33.33,0,0,1-.23-.06.2.2,0,0,1-.07-.16.22.22,0,0,1,.07-.17.33.33,0,0,1,.23-.06h.38v-5.38h-.61a.35.35,0,0,1-.23-.06.2.2,0,0,1-.07-.16.21.21,0,0,1,.07-.17.35.35,0,0,1,.23-.06H60l3.33,5.63v-5.18h-.83a.35.35,0,0,1-.23-.06.2.2,0,0,1-.07-.16.21.21,0,0,1,.07-.17.33.33,0,0,1,.23-.06h1.66a.38.38,0,0,1,.24.06.24.24,0,0,1,.07.17.24.24,0,0,1-.07.16.38.38,0,0,1-.24.06h-.38Z"/>
      <path class="cls-2" d="M67.26,102.32h1.46l-1.59,3c-.1.18-.21.27-.35.27a.29.29,0,0,1-.23-.1.32.32,0,0,1-.09-.23.45.45,0,0,1,0-.11Z"/>
      <path class="cls-1" d="M76.4,103.23v-.15a.35.35,0,0,1,.06-.23.2.2,0,0,1,.16-.07.21.21,0,0,1,.17.07.35.35,0,0,1,.06.23v1.15a.35.35,0,0,1-.06.23.21.21,0,0,1-.17.07.2.2,0,0,1-.15-.06.33.33,0,0,1-.07-.21,1.14,1.14,0,0,0-.46-.81,1.78,1.78,0,0,0-1.15-.36,1.72,1.72,0,0,0-1.19.38,1.19,1.19,0,0,0-.44.9,1,1,0,0,0,.12.49,1.15,1.15,0,0,0,.33.36,1.78,1.78,0,0,0,.46.22,7.09,7.09,0,0,0,.81.18,6.4,6.4,0,0,1,1.27.3,1.56,1.56,0,0,1,.7.58,1.59,1.59,0,0,1,.24.88,1.69,1.69,0,0,1-.62,1.32,2.42,2.42,0,0,1-1.66.54,2.49,2.49,0,0,1-1.88-.73v.25a.33.33,0,0,1-.06.23.21.21,0,0,1-.17.07.21.21,0,0,1-.16-.07.33.33,0,0,1-.06-.23v-1.24a.38.38,0,0,1,.06-.24.2.2,0,0,1,.16-.07.19.19,0,0,1,.16.07.28.28,0,0,1,.07.2,1.24,1.24,0,0,0,.53.9,2.07,2.07,0,0,0,1.35.41,2,2,0,0,0,1.34-.42,1.3,1.3,0,0,0,.49-1,1,1,0,0,0-.19-.63,1.27,1.27,0,0,0-.56-.44,5.63,5.63,0,0,0-1.07-.25,3.85,3.85,0,0,1-1.62-.57,1.33,1.33,0,0,1-.49-1.11,1.6,1.6,0,0,1,.57-1.22,2.12,2.12,0,0,1,1.49-.51A2.38,2.38,0,0,1,76.4,103.23Z"/>
      <path class="cls-1" d="M96.57,109.06h-.71l-1.28-4.46-1.25,4.46h-.71L92,103.23h-.16a.33.33,0,0,1-.23-.06.2.2,0,0,1-.07-.16.21.21,0,0,1,.07-.17.33.33,0,0,1,.23-.06h1.67a.38.38,0,0,1,.24.06.21.21,0,0,1,.07.17.2.2,0,0,1-.07.16.38.38,0,0,1-.24.06h-1l.6,5.32,1.22-4.38h.69l1.25,4.38.59-5.32H95.7a.33.33,0,0,1-.23-.06.2.2,0,0,1-.07-.16.21.21,0,0,1,.07-.17.33.33,0,0,1,.23-.06h1.66a.38.38,0,0,1,.24.06.21.21,0,0,1,.07.17.2.2,0,0,1-.07.16.38.38,0,0,1-.24.06H97.2Z"/>
      <path class="cls-1" d="M106.32,106v2.58h3.47v-1.33a.35.35,0,0,1,.06-.23A.21.21,0,0,1,110,107a.2.2,0,0,1,.16.07.35.35,0,0,1,.06.23v1.78h-5A.37.37,0,0,1,105,109a.24.24,0,0,1-.07-.16.26.26,0,0,1,.07-.17.37.37,0,0,1,.23-.06h.61v-5.38h-.61a.37.37,0,0,1-.23-.06A.24.24,0,0,1,105,103a.24.24,0,0,1,.07-.17.37.37,0,0,1,.23-.06H110v1.55a.29.29,0,0,1-.07.23.22.22,0,0,1-.32,0,.33.33,0,0,1-.06-.23v-1.1h-3.24v2.35h1.62v-.51a.33.33,0,0,1,.06-.23.22.22,0,0,1,.17-.07.2.2,0,0,1,.16.07.33.33,0,0,1,.07.23v1.47a.35.35,0,0,1-.07.23.2.2,0,0,1-.16.07.22.22,0,0,1-.17-.07.35.35,0,0,1-.06-.23V106Z"/>
      <path class="cls-1" d="M119.07,108.61v-5.38h-.61a.35.35,0,0,1-.23-.06.2.2,0,0,1-.07-.16.21.21,0,0,1,.07-.17.35.35,0,0,1,.23-.06h2.84a1.92,1.92,0,0,1,1.37.49,1.46,1.46,0,0,1-.36,2.47,2.24,2.24,0,0,1,1,.68,1.44,1.44,0,0,1,.33.92,1.61,1.61,0,0,1-.21.82,1.91,1.91,0,0,1-1.63.9h-3.37a.35.35,0,0,1-.23-.06.2.2,0,0,1-.07-.16.22.22,0,0,1,.07-.17.35.35,0,0,1,.23-.06Zm.45-3h1.59a2.23,2.23,0,0,0,.94-.19,1.14,1.14,0,0,0,.51-.43,1.07,1.07,0,0,0,.18-.58,1,1,0,0,0-.4-.78,1.47,1.47,0,0,0-1-.36h-1.79Zm0,3h2.28a1.45,1.45,0,0,0,.76-.19,1.41,1.41,0,0,0,.49-.48,1.16,1.16,0,0,0,.16-.59,1.12,1.12,0,0,0-.24-.67,1.44,1.44,0,0,0-.66-.48,3.08,3.08,0,0,0-1.17-.17h-1.62Z"/>
      <path class="cls-1" d="M136.22,102l-3.63,7.77c-.06.14-.14.2-.23.2a.19.19,0,0,1-.16-.07.17.17,0,0,1-.07-.14.49.49,0,0,1,.05-.18l3.63-7.78a.61.61,0,0,1,.11-.16.28.28,0,0,1,.13,0,.26.26,0,0,1,.16.07.23.23,0,0,1,.07.15A.46.46,0,0,1,136.22,102Z"/>
      <path class="cls-1" d="M150.17,105.93l-4.88,2.72a.38.38,0,0,1-.17.06.23.23,0,0,1-.16-.06.21.21,0,0,1-.07-.16q0-.13.18-.24l4.18-2.32-4.17-2.32c-.12-.07-.18-.14-.18-.23a.22.22,0,0,1,.22-.23.46.46,0,0,1,.18.06Z"/>
      <path class="cls-5" d="M133.87,71.09H31.06V7.24H133.87Z"/>
    </g>
  </g>
</svg>