<svg xmlns="http://www.w3.org/2000/svg" viewBox="0 0 166.35 110.22"><defs><style>.cls-1,.cls-2{fill:#1d1d1b;}.cls-1,.cls-3,.cls-6{stroke:#1d1d1b;stroke-miterlimit:10;}.cls-1{stroke-width:0.5px;}.cls-3{fill:#e52332;}.cls-4{fill:#fff;}.cls-5{fill:none;}.cls-6{fill:#e52421;}</style></defs><title>Fichier 2</title><g id="Calque_2" data-name="Calque 2"><g id="Calque_1-2" data-name="Calque 1"><path class="cls-1" d="M19.2,105.93l4.88-2.72a.46.46,0,0,1,.18-.06.22.22,0,0,1,.22.23c0,.09-.06.16-.18.23l-4.18,2.32,4.17,2.32c.13.07.19.15.19.24a.21.21,0,0,1-.07.16.23.23,0,0,1-.16.06.46.46,0,0,1-.18-.06Z"/><path class="cls-1" d="M33.25,108.61v-5.38h-.6a.33.33,0,0,1-.23-.06.2.2,0,0,1-.07-.16.21.21,0,0,1,.07-.17.33.33,0,0,1,.23-.06h2.83a2,2,0,0,1,1.38.49,1.47,1.47,0,0,1-.36,2.47,2.24,2.24,0,0,1,1,.68,1.44,1.44,0,0,1,.33.92,1.53,1.53,0,0,1-.22.82,1.7,1.7,0,0,1-.66.64,1.78,1.78,0,0,1-1,.26H32.65a.33.33,0,0,1-.23-.06.2.2,0,0,1-.07-.16.22.22,0,0,1,.07-.17.33.33,0,0,1,.23-.06Zm.46-3H35.3a2.18,2.18,0,0,0,.93-.19,1.22,1.22,0,0,0,.52-.43,1.07,1.07,0,0,0,.18-.58,1,1,0,0,0-.4-.78,1.48,1.48,0,0,0-1-.36H33.71Zm0,3H36a1.45,1.45,0,0,0,.76-.19,1.38,1.38,0,0,0,.48-.48,1.18,1.18,0,0,0,.17-.59,1.12,1.12,0,0,0-.24-.67,1.49,1.49,0,0,0-.66-.48,3.11,3.11,0,0,0-1.17-.17H33.71Z"/><path class="cls-1" d="M46.91,106v2.58h3.47v-1.33a.35.35,0,0,1,.06-.23.22.22,0,0,1,.17-.07.19.19,0,0,1,.16.07.35.35,0,0,1,.06.23v1.78h-5a.37.37,0,0,1-.23-.06.24.24,0,0,1-.07-.16.26.26,0,0,1,.07-.17.37.37,0,0,1,.23-.06h.61v-5.38h-.61a.37.37,0,0,1-.23-.06.24.24,0,0,1-.07-.16.24.24,0,0,1,.07-.17.37.37,0,0,1,.23-.06H50.6v1.55a.33.33,0,0,1-.06.23.22.22,0,0,1-.17.07.19.19,0,0,1-.16-.07.33.33,0,0,1-.06-.23v-1.1H46.91v2.35h1.62v-.51a.33.33,0,0,1,.06-.23.22.22,0,0,1,.17-.07.2.2,0,0,1,.16.07.33.33,0,0,1,.07.23v1.47a.35.35,0,0,1-.07.23.2.2,0,0,1-.16.07.22.22,0,0,1-.17-.07.35.35,0,0,1-.06-.23V106Z"/><path class="cls-1" d="M63.79,109.06h-.58l-3.32-5.62v5.17h.83a.38.38,0,0,1,.24.06.26.26,0,0,1,.07.17A.24.24,0,0,1,61,109a.38.38,0,0,1-.24.06H59.06a.33.33,0,0,1-.23-.06.2.2,0,0,1-.07-.16.22.22,0,0,1,.07-.17.33.33,0,0,1,.23-.06h.38v-5.38h-.61a.35.35,0,0,1-.23-.06.2.2,0,0,1-.07-.16.21.21,0,0,1,.07-.17.35.35,0,0,1,.23-.06H60l3.33,5.63v-5.18h-.83a.35.35,0,0,1-.23-.06.2.2,0,0,1-.07-.16.21.21,0,0,1,.07-.17.33.33,0,0,1,.23-.06h1.66a.38.38,0,0,1,.24.06.24.24,0,0,1,.07.17.24.24,0,0,1-.07.16.38.38,0,0,1-.24.06h-.38Z"/><path class="cls-2" d="M67.26,102.32h1.46l-1.59,3c-.1.18-.21.27-.35.27a.29.29,0,0,1-.23-.1.32.32,0,0,1-.09-.23.45.45,0,0,1,0-.11Z"/><path class="cls-1" d="M76.4,103.23v-.15a.35.35,0,0,1,.06-.23.2.2,0,0,1,.16-.07.21.21,0,0,1,.17.07.35.35,0,0,1,.06.23v1.15a.35.35,0,0,1-.06.23.21.21,0,0,1-.17.07.2.2,0,0,1-.15-.06.33.33,0,0,1-.07-.21,1.14,1.14,0,0,0-.46-.81,1.78,1.78,0,0,0-1.15-.36,1.72,1.72,0,0,0-1.19.38,1.19,1.19,0,0,0-.44.9,1,1,0,0,0,.12.49,1.15,1.15,0,0,0,.33.36,1.78,1.78,0,0,0,.46.22,7.09,7.09,0,0,0,.81.18,6.4,6.4,0,0,1,1.27.3,1.56,1.56,0,0,1,.7.58,1.59,1.59,0,0,1,.24.88,1.69,1.69,0,0,1-.62,1.32,2.42,2.42,0,0,1-1.66.54,2.49,2.49,0,0,1-1.88-.73v.25a.33.33,0,0,1-.06.23.21.21,0,0,1-.17.07.21.21,0,0,1-.16-.07.33.33,0,0,1-.06-.23v-1.24a.38.38,0,0,1,.06-.24.2.2,0,0,1,.16-.07.19.19,0,0,1,.16.07.28.28,0,0,1,.07.2,1.24,1.24,0,0,0,.53.9,2.07,2.07,0,0,0,1.35.41,2,2,0,0,0,1.34-.42,1.3,1.3,0,0,0,.49-1,1,1,0,0,0-.19-.63,1.27,1.27,0,0,0-.56-.44,5.63,5.63,0,0,0-1.07-.25,3.85,3.85,0,0,1-1.62-.57,1.33,1.33,0,0,1-.49-1.11,1.6,1.6,0,0,1,.57-1.22,2.12,2.12,0,0,1,1.49-.51A2.38,2.38,0,0,1,76.4,103.23Z"/><path class="cls-1" d="M96.57,109.06h-.71l-1.28-4.46-1.25,4.46h-.71L92,103.23h-.16a.33.33,0,0,1-.23-.06.2.2,0,0,1-.07-.16.21.21,0,0,1,.07-.17.33.33,0,0,1,.23-.06h1.67a.38.38,0,0,1,.24.06.21.21,0,0,1,.07.17.2.2,0,0,1-.07.16.38.38,0,0,1-.24.06h-1l.6,5.32,1.22-4.38h.69l1.25,4.38.59-5.32H95.7a.33.33,0,0,1-.23-.06.2.2,0,0,1-.07-.16.21.21,0,0,1,.07-.17.33.33,0,0,1,.23-.06h1.66a.38.38,0,0,1,.24.06.21.21,0,0,1,.07.17.2.2,0,0,1-.07.16.38.38,0,0,1-.24.06H97.2Z"/><path class="cls-1" d="M106.32,106v2.58h3.47v-1.33a.35.35,0,0,1,.06-.23A.21.21,0,0,1,110,107a.2.2,0,0,1,.16.07.35.35,0,0,1,.06.23v1.78h-5A.37.37,0,0,1,105,109a.24.24,0,0,1-.07-.16.26.26,0,0,1,.07-.17.37.37,0,0,1,.23-.06h.61v-5.38h-.61a.37.37,0,0,1-.23-.06A.24.24,0,0,1,105,103a.24.24,0,0,1,.07-.17.37.37,0,0,1,.23-.06H110v1.55a.29.29,0,0,1-.07.23.22.22,0,0,1-.32,0,.33.33,0,0,1-.06-.23v-1.1h-3.24v2.35h1.62v-.51a.33.33,0,0,1,.06-.23.22.22,0,0,1,.17-.07.2.2,0,0,1,.16.07.33.33,0,0,1,.07.23v1.47a.35.35,0,0,1-.07.23.2.2,0,0,1-.16.07.22.22,0,0,1-.17-.07.35.35,0,0,1-.06-.23V106Z"/><path class="cls-1" d="M119.07,108.61v-5.38h-.61a.35.35,0,0,1-.23-.06.2.2,0,0,1-.07-.16.21.21,0,0,1,.07-.17.35.35,0,0,1,.23-.06h2.84a1.92,1.92,0,0,1,1.37.49,1.46,1.46,0,0,1-.36,2.47,2.24,2.24,0,0,1,1,.68,1.44,1.44,0,0,1,.33.92,1.61,1.61,0,0,1-.21.82,1.91,1.91,0,0,1-1.63.9h-3.37a.35.35,0,0,1-.23-.06.2.2,0,0,1-.07-.16.22.22,0,0,1,.07-.17.35.35,0,0,1,.23-.06Zm.45-3h1.59a2.23,2.23,0,0,0,.94-.19,1.14,1.14,0,0,0,.51-.43,1.07,1.07,0,0,0,.18-.58,1,1,0,0,0-.4-.78,1.47,1.47,0,0,0-1-.36h-1.79Zm0,3h2.28a1.45,1.45,0,0,0,.76-.19,1.41,1.41,0,0,0,.49-.48,1.16,1.16,0,0,0,.16-.59,1.12,1.12,0,0,0-.24-.67,1.44,1.44,0,0,0-.66-.48,3.08,3.08,0,0,0-1.17-.17h-1.62Z"/><path class="cls-1" d="M136.22,102l-3.63,7.77c-.06.14-.14.2-.23.2a.19.19,0,0,1-.16-.07.17.17,0,0,1-.07-.14.49.49,0,0,1,.05-.18l3.63-7.78a.61.61,0,0,1,.11-.16.28.28,0,0,1,.13,0,.26.26,0,0,1,.16.07.23.23,0,0,1,.07.15A.46.46,0,0,1,136.22,102Z"/><path class="cls-1" d="M150.17,105.93l-4.88,2.72a.38.38,0,0,1-.17.06.23.23,0,0,1-.16-.06.21.21,0,0,1-.07-.16q0-.13.18-.24l4.18-2.32-4.17-2.32c-.12-.07-.18-.14-.18-.23a.22.22,0,0,1,.22-.23.46.46,0,0,1,.18.06Z"/><rect class="cls-3" x="29.3" y="37.73" width="106.34" height="33.35"/><path class="cls-4" d="M0,97.82V0H166.35V97.82ZM138.36,75.58c.1-1,.27-2,.27-2.92q0-33.07,0-66.16c0-3-.78-3.77-3.75-3.77H30c-3,0-3.72.76-3.72,3.78q0,33.15,0,66.31c0,.91.17,1.82.26,2.74L3.24,89.19l.14.29H164.12l.13-.44ZM4.92,90.75,4.84,91c.61.3,1.21.66,1.85.9a28.5,28.5,0,0,0,10.2,1.49q66.53,0,133.06,0a51.62,51.62,0,0,0,5.56-.27,16.92,16.92,0,0,0,7.56-2.36Z"/><path d="M138.36,75.58,164.25,89l-.13.44H3.38l-.14-.29L26.55,75.56c-.09-.92-.25-1.83-.26-2.74q0-33.16,0-66.31c0-3,.74-3.78,3.72-3.78H134.89c3,0,3.75.78,3.75,3.77q0,33.08,0,66.16C138.63,73.62,138.46,74.58,138.36,75.58Zm-4.49-4.49V7.24H31.06V71.09ZM29.46,81.87l.13.3h107.8c-2.8-2-5.3-3.91-7.87-5.68a4.12,4.12,0,0,0-2.24-.73q-43.9-.09-87.8-.14A5.5,5.5,0,0,0,35.56,77C33.58,78.68,31.5,80.25,29.46,81.87ZM83.7,88.81H99.19c3.71,0,3.63,0,2.53-3.54a2.68,2.68,0,0,0-3-2.15c-9.5.06-19,0-28.5,0-3.7,0-3.7,0-4.83,3.48-.6,1.84-.36,2.17,1.62,2.18Z"/><path d="M4.92,90.75H163.07a16.92,16.92,0,0,1-7.56,2.36,51.62,51.62,0,0,1-5.56.27q-66.52,0-133.06,0a28.5,28.5,0,0,1-10.2-1.49c-.64-.24-1.24-.6-1.85-.9Z"/><path class="cls-5" d="M133.87,71.09H31.06V7.24H133.87Z"/><path class="cls-4" d="M29.46,81.87c2-1.62,4.12-3.19,6.1-4.88a5.5,5.5,0,0,1,3.92-1.37q43.9.1,87.8.14a4.12,4.12,0,0,1,2.24.73c2.57,1.77,5.07,3.64,7.87,5.68H29.59Zm34.38-.59H95.31l.14-.48a5.05,5.05,0,0,0-1.53-.58c-2.48-.07-5,0-7.43,0H65.43C64.68,80.19,63.79,80,63.84,81.28Zm52.38-2.51-.17.43a5,5,0,0,0,1.09.54,5.11,5.11,0,0,0,1.24,0h13.84a1.87,1.87,0,0,0-1.33-1C126,78.75,121.11,78.77,116.22,78.77Zm-65.94.52-.09-.52c-4.93,0-9.86,0-14.79,0-.45,0-.9.44-1.34.67,5,.3,10,.31,14.93.28A4.17,4.17,0,0,0,50.28,79.29ZM48,77.39H38.14a3.89,3.89,0,0,0-1.08,0,5.85,5.85,0,0,0-1.17.65C39.76,78.58,47.11,78.33,48,77.39Zm70.27.42c3.9.69,7.86.32,12.15.46C129.08,77.32,121.43,77,118.23,77.81ZM104.59,81c-2.29-1.47-4.86-.53-7.4-.86C97.64,81.54,99.76,81.8,104.59,81Zm-50.13-.28.08.67c2.1,0,4.2,0,6.3,0,.41,0,.81-.48,1.21-.74l-.25-.5C59.38,80.56,56.79,79.51,54.46,80.73ZM120,76.45c2.67.72,5.42.43,8.17.2C125.53,75.9,122.79,76.22,120,76.45Zm-82.19.23c3.88.64,7.38.39,8.25-.61C43.22,76.37,40.46,75.61,37.84,76.68Zm7.48,3.7c-1.92.21-4.09-1-5.72.85C41.53,81.05,43.65,82.16,45.32,80.38Zm1.47.82c3.75.62,5.47.32,5.88-1.1C50.78,80.64,48.63,79.31,46.79,81.2Zm-14.93,0c4,.58,5.37.34,6.11-1.09C36,80.53,33.84,79.41,31.86,81.22Zm74.6-.78c1.63,1.66,3.68.65,5.59.67C110.42,79.56,108.36,80.49,106.46,80.44Zm.72-1c-1.65-1.19-3.5-.48-5.52-.76C102.57,79.91,103.48,80,107.18,79.45Zm-19.44-.62c.32,1,2.6,1.31,5.11.73C92.34,78.59,92.07,78.55,87.74,78.83Zm21.3.32c1.65,1,3.5.44,5.48.62C113.53,78.63,112,78.43,109,79.15Zm-23.29.61c0-.42,0-.61,0-.61-1.63-.11-3.26-.22-4.89-.3-.08,0-.28.38-.22.48s.33.41.51.41C82.67,79.77,84.19,79.76,85.75,79.76Zm-12.36-.38.3.39c1.39,0,2.78,0,4.17,0,.26,0,.52-.33.78-.5-.22-.16-.43-.47-.65-.47-1.29,0-2.58,0-3.87,0C73.87,78.82,73.63,79.18,73.39,79.38ZM71.48,79c-2.24-.62-4.6-.35-5.1.57C68.87,80.11,71,79.86,71.48,79Zm-14.21.08c-1.78,0-3.66-.88-5.24.47C53.81,79.54,55.66,80.22,57.27,79.08Zm37.57.22c1.65.64,3.4.43,5.26.43C99.42,78.65,97.23,78.39,94.84,79.3Zm-30.46-.13c-2.59-.85-4.93-.5-5,.64C61.06,79.51,62.83,80.25,64.38,79.17ZM95.76,78c-.69-.79-3.67-.93-5.27,0Zm-39,0c1.66.08,3.33.43,4.89-.33C60,77.71,58.25,76.86,56.73,78Zm11.72,0c-1.92-1-4.4-.76-4.8,0Zm20.63,0c-1-.9-4.09-.93-5.24,0Zm4.67-1.72c1.49,1,3.16.41,4.77.39C97,75.62,95.35,76.35,93.75,76.36Zm-13.1-.12v.57h4.73v-.45A12.34,12.34,0,0,0,80.65,76.24Zm22,1.78c-1.57-1-3.24-.49-4.9-.31C99.27,78.59,101,78.08,102.62,78Zm8.74-.34c1.58.77,3.25.54,4.91.51l0-.51Zm-34.15-.05,0,.41H82.1v-.41Zm-22.4-.08c-1.64.2-3.42-.74-4.94.56C51.52,77.9,53.29,78.82,54.81,77.55Zm58.64-1.2c1.54,1,3.22.49,4.86.38C116.77,75.74,115.09,76.26,113.45,76.35Zm-1.76.32c-1.52-.83-3.16-.44-4.78-.3C108.42,77.31,110.07,76.84,111.69,76.67Zm-11.34-.22a8.47,8.47,0,0,0,4.76.27C103.61,75.71,102,76.29,100.35,76.45Zm-13.11-.3-.06.58h4.76l0-.44A20.76,20.76,0,0,0,87.24,76.15Zm-26.31.56c1.6.12,3.22.56,4.69-.3C64,76.31,62.39,75.73,60.93,76.71Zm-1.87-.41c-1.58.14-3.31-.7-4.75.47C55.91,76.74,57.59,77.43,59.06,76.3Zm-6.55,0c-1.61,0-3.33-.8-4.78.47C49.33,76.75,51,77.42,52.51,76.34Zm57,1.66c-1.58-1-3.25-.5-4.9-.29C106.14,78.55,107.81,78.12,109.46,78Zm-39.1,0h5.29C74,77.13,71.22,77.22,70.36,78Zm3.76-1.43c1.57.29,3.15.61,4.63-.12A7.4,7.4,0,0,0,74.12,76.6Zm-1.92.15c-2-1-4.2-.73-4.64,0Z"/><path class="cls-6" d="M83.7,88.81H67c-2,0-2.22-.34-1.62-2.18,1.13-3.48,1.13-3.48,4.83-3.48,9.5,0,19,0,28.5,0a2.68,2.68,0,0,1,3,2.15c1.1,3.56,1.18,3.54-2.53,3.54Z"/><path d="M63.84,81.28c-.05-1.26.84-1.09,1.59-1.09H86.49c2.47,0,5,0,7.43,0a5.05,5.05,0,0,1,1.53.58l-.14.48Z"/><path d="M116.22,78.77c4.89,0,9.78,0,14.67,0a1.87,1.87,0,0,1,1.33,1H118.38a5.11,5.11,0,0,1-1.24,0,5,5,0,0,1-1.09-.54Z"/><path d="M50.28,79.29a4.17,4.17,0,0,1-1.29.46c-4.94,0-9.88,0-14.93-.28.44-.23.89-.67,1.34-.67,4.93,0,9.86,0,14.79,0Z"/><path d="M48,77.39c-.85.94-8.2,1.19-12.07.69a5.85,5.85,0,0,1,1.17-.65,3.89,3.89,0,0,1,1.08,0Z"/><path d="M118.23,77.81c3.2-.78,10.85-.49,12.15.46C126.09,78.13,122.13,78.5,118.23,77.81Z"/><path d="M104.59,81c-4.83.79-7,.53-7.4-.86C99.73,80.48,102.3,79.54,104.59,81Z"/><path d="M54.46,80.73c2.33-1.22,4.92-.17,7.34-.61l.25.5c-.4.26-.8.73-1.21.74-2.1.08-4.2,0-6.3,0Z"/><path d="M120,76.45c2.76-.23,5.5-.55,8.17.2C125.45,76.88,122.7,77.17,120,76.45Z"/><path d="M37.84,76.68c2.62-1.07,5.38-.31,8.25-.61C45.22,77.07,41.72,77.32,37.84,76.68Z"/><path d="M45.32,80.38c-1.67,1.78-3.79.67-5.72.85C41.23,79.34,43.4,80.59,45.32,80.38Z"/><path d="M46.79,81.2c1.84-1.89,4-.56,5.88-1.1C52.26,81.52,50.54,81.82,46.79,81.2Z"/><path d="M31.86,81.22c2-1.81,4.11-.69,6.11-1.09C37.23,81.56,35.85,81.8,31.86,81.22Z"/><path d="M106.46,80.44c1.9,0,4-.88,5.59.67C110.14,81.09,108.09,82.1,106.46,80.44Z"/><path d="M107.18,79.45c-3.7.57-4.61.46-5.52-.76C103.68,79,105.53,78.26,107.18,79.45Z"/><path d="M87.74,78.83c4.33-.28,4.6-.24,5.11.73C90.34,80.14,88.06,79.86,87.74,78.83Z"/><path d="M109,79.15c2.91-.72,4.49-.52,5.48.62C112.54,79.59,110.69,80.2,109,79.15Z"/><path d="M85.75,79.76c-1.56,0-3.08,0-4.6,0-.18,0-.42-.23-.51-.41s.14-.48.22-.48c1.63.08,3.26.19,4.89.3C85.76,79.15,85.75,79.34,85.75,79.76Z"/><path d="M73.39,79.38c.24-.2.48-.56.73-.57,1.29-.07,2.58-.07,3.87,0,.22,0,.43.31.65.47-.26.17-.52.49-.78.5-1.39,0-2.78,0-4.17,0Z"/><path d="M71.48,79c-.45.86-2.61,1.11-5.1.57C66.88,78.65,69.24,78.38,71.48,79Z"/><path d="M57.27,79.08c-1.61,1.14-3.46.46-5.24.47C53.61,78.2,55.49,79,57.27,79.08Z"/><path d="M94.84,79.3c2.39-.91,4.58-.65,5.26.43C98.24,79.73,96.49,79.94,94.84,79.3Z"/><path d="M64.38,79.17c-1.55,1.08-3.32.34-5,.64C59.45,78.67,61.79,78.32,64.38,79.17Z"/><path d="M95.76,78H90.49C92.09,77.1,95.07,77.24,95.76,78Z"/><path d="M56.73,78c1.52-1.18,3.24-.33,4.89-.33C60.06,78.47,58.39,78.12,56.73,78Z"/><path d="M68.45,78h-4.8C64.05,77.28,66.53,77.05,68.45,78Z"/><path d="M89.08,78.08H83.84C85,77.15,88.12,77.18,89.08,78.08Z"/><path d="M93.75,76.36c1.6,0,3.29-.74,4.77.39C96.91,76.77,95.24,77.39,93.75,76.36Z"/><path d="M80.65,76.24a12.34,12.34,0,0,1,4.73.12v.45H80.64Z"/><path d="M102.62,78c-1.66.06-3.35.57-4.9-.31C99.38,77.53,101.05,77,102.62,78Z"/><path d="M111.36,77.68h5l0,.51C114.61,78.22,112.94,78.45,111.36,77.68Z"/><path d="M77.21,77.63h4.88V78H77.24Z"/><path d="M54.81,77.55c-1.52,1.27-3.29.35-4.94.56C51.39,76.81,53.17,77.75,54.81,77.55Z"/><path d="M113.45,76.35c1.64-.09,3.32-.61,4.86.38C116.67,76.84,115,77.35,113.45,76.35Z"/><path d="M111.69,76.67c-1.62.17-3.27.64-4.78-.3C108.53,76.23,110.17,75.84,111.69,76.67Z"/><path d="M100.35,76.45c1.61-.16,3.26-.74,4.76.27A8.47,8.47,0,0,1,100.35,76.45Z"/><path d="M87.24,76.15a20.76,20.76,0,0,1,4.73.14l0,.44H87.18Z"/><path d="M60.93,76.71c1.46-1,3.09-.4,4.69-.3C64.15,77.27,62.53,76.83,60.93,76.71Z"/><path d="M59.06,76.3c-1.47,1.13-3.15.44-4.75.47C55.75,75.6,57.48,76.44,59.06,76.3Z"/><path d="M52.51,76.34c-1.48,1.08-3.18.41-4.78.47C49.18,75.54,50.9,76.38,52.51,76.34Z"/><path d="M109.46,78c-1.65.12-3.32.55-4.9-.29C106.21,77.5,107.88,77,109.46,78Z"/><path d="M70.36,78c.86-.81,3.67-.9,5.29,0Z"/><path d="M74.12,76.6a7.4,7.4,0,0,1,4.63-.12C77.27,77.21,75.69,76.89,74.12,76.6Z"/><path d="M72.2,76.75H67.56C68,76,70.15,75.8,72.2,76.75Z"/><path class="cls-2" d="M71.33,43.14H65.57l2.88-2.88v-23H80q11.53,0,11.53,11.53,0,5.76-2.88,8.64a8.51,8.51,0,0,1,1.9,2.88q.51,1.29-2.11,2.88h5.77C94.31,44,93.42,45,91.5,46Q91.5,57.54,80,57.54H68.45V46Zm0,0h5.76L74.21,46v5.76H80c3.84,0,5.77-1.92,5.77-5.76,1.92-1.13,2.71-2.09,2.39-2.88H82.36Q84,40.26,80,40.26H74.21Zm14.41-14.4C85.74,24.9,83.81,23,80,23H74.21V34.5H80C83.81,34.5,85.74,32.58,85.74,28.74Z"/></g></g></svg>